<svg width="20" height="21" viewBox="0 0 20 21" fill="none" xmlns="http://www.w3.org/2000/svg">
<path d="M10 2.125C5.40002 2.125 1.66669 5.85833 1.66669 10.4583C1.66669 15.0583 5.40002 18.7917 10 18.7917H14.1667V17.125H10C6.38335 17.125 3.33335 14.075 3.33335 10.4583C3.33335 6.84167 6.38335 3.79167 10 3.79167C13.6167 3.79167 16.6667 6.84167 16.6667 10.4583V11.65C16.6667 12.3083 16.075 12.9583 15.4167 12.9583C14.7584 12.9583 14.1667 12.3083 14.1667 11.65V10.4583C14.1667 8.15833 12.3 6.29167 10 6.29167C7.70002 6.29167 5.83335 8.15833 5.83335 10.4583C5.83335 12.7583 7.70002 14.625 10 14.625C11.15 14.625 12.2 14.1583 12.95 13.4C13.4917 14.1417 14.425 14.625 15.4167 14.625C17.0584 14.625 18.3334 13.2917 18.3334 11.65V10.4583C18.3334 5.85833 14.6 2.125 10 2.125ZM10 12.9583C8.61669 12.9583 7.50002 11.8417 7.50002 10.4583C7.50002 9.075 8.61669 7.95833 10 7.95833C11.3834 7.95833 12.5 9.075 12.5 10.4583C12.5 11.8417 11.3834 12.9583 10 12.9583Z" fill="black"/>
</svg>
