<svg width="100" height="100" viewBox="0 0 100 100" fill="none" xmlns="http://www.w3.org/2000/svg">
<g clip-path="url(#clip0_15_225)">
<path d="M98.5156 22.623C98.5003 22.5776 98.482 22.5333 98.4609 22.4902C98.433 22.4062 98.3984 22.3246 98.3574 22.2461C98.3258 22.1973 98.2905 22.151 98.252 22.1074C98.209 22.0433 98.162 21.982 98.1113 21.9238C98.0664 21.8808 98.0098 21.8457 97.9609 21.8066C97.9052 21.7587 97.8465 21.7143 97.7852 21.6738L78.9844 10.8496C78.7469 10.7125 78.4774 10.6403 78.2031 10.6403C77.9289 10.6403 77.6594 10.7125 77.4219 10.8496L58.6172 21.6797C58.5569 21.7206 58.4994 21.7656 58.4453 21.8144C58.3921 21.8502 58.3412 21.8893 58.293 21.9316C58.2418 21.9887 58.1948 22.0494 58.1524 22.1133C58.1191 22.1601 58.0762 22.2012 58.0469 22.2519C58.0074 22.3309 57.9734 22.4124 57.9453 22.4961C57.9297 22.541 57.9043 22.582 57.8906 22.6289C57.8548 22.7614 57.8364 22.8979 57.8359 23.0351V43.5898L42.168 52.6113V12.3906C42.1683 12.2527 42.1499 12.1154 42.1133 11.9824C42.1016 11.9355 42.0742 11.8945 42.0586 11.8496C42.0313 11.7663 41.9973 11.6853 41.957 11.6074C41.9297 11.5566 41.8848 11.5156 41.8516 11.4668C41.8086 11.4027 41.7616 11.3414 41.7109 11.2832C41.6622 11.2415 41.6114 11.2024 41.5586 11.166C41.5039 11.1185 41.4465 11.0742 41.3867 11.0332V11.0332L22.5801 0.208969C22.3426 0.0718311 22.0731 -0.000366211 21.7988 -0.000366211C21.5246 -0.000366211 21.2551 0.0718311 21.0176 0.208969L2.21485 11.0332C2.1538 11.0731 2.0963 11.1182 2.04297 11.168C1.98911 11.2037 1.93757 11.2428 1.88868 11.2851C1.83816 11.3423 1.79182 11.403 1.75001 11.4668C1.71485 11.5156 1.67188 11.5566 1.64258 11.6074C1.60256 11.6852 1.56924 11.7662 1.54297 11.8496C1.52164 11.8921 1.50273 11.9358 1.48633 11.9805C1.4504 12.1142 1.43202 12.2521 1.43165 12.3906V76.7851C1.4309 77.0601 1.50274 77.3305 1.63992 77.5688C1.77709 77.8072 1.97474 78.0051 2.2129 78.1426L39.8106 99.791C39.8941 99.8331 39.981 99.8684 40.0703 99.8965C40.1113 99.9121 40.1504 99.9355 40.1934 99.9473C40.4557 100.018 40.7318 100.018 40.9941 99.9473C41.0332 99.9375 41.0664 99.916 41.1016 99.9043C41.1959 99.8746 41.2874 99.8367 41.375 99.791L78.9844 78.1426C79.2225 78.0051 79.4202 77.8072 79.5574 77.5688C79.6945 77.3305 79.7664 77.0601 79.7656 76.7851V56.2265L97.7813 45.8535C98.0209 45.7152 98.2194 45.5157 98.3567 45.2755C98.494 45.0353 98.565 44.763 98.5625 44.4863V23.0312C98.5636 22.8938 98.5478 22.7567 98.5156 22.623V22.623ZM21.7969 3.37498L37.459 12.3887L21.7949 21.4082L6.13477 12.3906L21.7969 3.37498ZM39.0332 15.0937V54.414L29.9453 59.6465L23.3652 63.4355V24.1211L32.4531 18.8887L39.0332 15.0937ZM39.0332 95.7148L4.56446 75.8789V15.1015L11.1445 18.8867L20.2305 24.1211V66.1484C20.2344 66.2075 20.2423 66.2662 20.2539 66.3242C20.2586 66.4017 20.269 66.4787 20.2852 66.5547V66.5547C20.305 66.6152 20.3298 66.674 20.3594 66.7305C20.3811 66.7978 20.4086 66.8631 20.4414 66.9258C20.4775 66.9788 20.5166 67.0296 20.5586 67.0781C20.5977 67.1357 20.6408 67.1906 20.6875 67.2422V67.2422C20.7324 67.2851 20.7891 67.3164 20.8379 67.3555C20.8912 67.4018 20.9473 67.4448 21.0059 67.4844V67.4844L39.0117 77.6758L39.0332 95.7148ZM40.5957 74.9785L24.959 66.1269L41.3828 56.6719L59.4024 46.2988L75.0527 55.3086L63.5684 61.8633L40.5957 74.9785ZM76.6348 75.8711L42.1641 95.7246V77.6953L67.6953 63.125L76.6348 58.0176V75.8711ZM76.6348 52.6035L70.0547 48.8281L60.9668 43.5957V25.7402L67.5469 29.5293L76.6348 34.7656V52.6035ZM78.1973 32.041L62.5332 23.0234L78.1973 14.0078L93.8574 23.0215L78.1973 32.041ZM79.7598 52.6035V34.7656L88.8672 29.5293L95.4453 25.7402V43.5898L79.7598 52.6035Z" fill="#FF0000"/>
</g>
<defs>
<clipPath id="clip0_15_225">
<rect width="100" height="100" fill="white"/>
</clipPath>
</defs>
</svg>
