<svg width="20" height="21" viewBox="0 0 20 21" fill="none" xmlns="http://www.w3.org/2000/svg">
<path fill-rule="evenodd" clip-rule="evenodd" d="M0.833313 2.86501C0.833313 2.45879 0.994685 2.0692 1.28193 1.78196C1.56917 1.49472 1.95876 1.33335 2.36498 1.33335H17.6333C17.8346 1.33302 18.034 1.3724 18.2201 1.44923C18.4062 1.52607 18.5753 1.63885 18.7177 1.78113C18.8601 1.9234 18.9731 2.09237 19.0501 2.27835C19.1272 2.46434 19.1668 2.6637 19.1666 2.86501V18.1333C19.1669 18.3347 19.1274 18.5341 19.0505 18.7202C18.9735 18.9063 18.8607 19.0754 18.7183 19.2178C18.576 19.3602 18.407 19.4731 18.2209 19.5502C18.0349 19.6272 17.8355 19.6668 17.6341 19.6667H2.36498C2.16377 19.6667 1.96453 19.627 1.77864 19.55C1.59276 19.473 1.42387 19.3601 1.28163 19.2178C1.13939 19.0755 1.02659 18.9065 0.949665 18.7206C0.872741 18.5347 0.833204 18.3354 0.833313 18.1342V2.86501ZM8.08998 8.32335H10.5725V9.57001C10.9308 8.85335 11.8475 8.20835 13.225 8.20835C15.8658 8.20835 16.4916 9.63585 16.4916 12.255V17.1067H13.8191V12.8517C13.8191 11.36 13.4608 10.5183 12.5508 10.5183C11.2883 10.5183 10.7633 11.4258 10.7633 12.8517V17.1067H8.08998V8.32335ZM3.50665 16.9925H6.17998V8.20835H3.50665V16.9917V16.9925ZM6.56248 5.34335C6.56752 5.57224 6.52679 5.79983 6.44268 6.01277C6.35857 6.22571 6.23277 6.41971 6.07267 6.58337C5.91257 6.74704 5.7214 6.87707 5.51036 6.96585C5.29932 7.05463 5.07268 7.10036 4.84373 7.10036C4.61478 7.10036 4.38814 7.05463 4.1771 6.96585C3.96606 6.87707 3.77489 6.74704 3.61479 6.58337C3.45469 6.41971 3.32889 6.22571 3.24478 6.01277C3.16067 5.79983 3.11994 5.57224 3.12498 5.34335C3.13487 4.89406 3.3203 4.4665 3.64155 4.15225C3.9628 3.838 4.39433 3.66203 4.84373 3.66203C5.29313 3.66203 5.72466 3.838 6.04591 4.15225C6.36716 4.4665 6.55259 4.89406 6.56248 5.34335V5.34335Z" fill="black"/>
</svg>
