<svg width="20" height="21" viewBox="0 0 20 21" fill="none" xmlns="http://www.w3.org/2000/svg">
<path d="M10 18C8.94747 17.1022 7.97185 16.1179 7.08335 15.0575C5.75002 13.465 4.16669 11.0933 4.16669 8.83333C4.16611 7.67913 4.50794 6.5507 5.14893 5.59085C5.78992 4.631 6.70125 3.88288 7.76758 3.44116C8.83391 2.99944 10.0073 2.88399 11.1393 3.10941C12.2713 3.33482 13.3109 3.89098 14.1267 4.7075C14.6698 5.24821 15.1003 5.89128 15.3933 6.59947C15.6862 7.30767 15.8358 8.06694 15.8334 8.83333C15.8334 11.0933 14.25 13.465 12.9167 15.0575C12.0282 16.1179 11.0526 17.1022 10 18ZM10 6.33333C9.33698 6.33333 8.7011 6.59672 8.23225 7.06556C7.76341 7.5344 7.50002 8.17029 7.50002 8.83333C7.50002 9.49637 7.76341 10.1323 8.23225 10.6011C8.7011 11.0699 9.33698 11.3333 10 11.3333C10.6631 11.3333 11.2989 11.0699 11.7678 10.6011C12.2366 10.1323 12.5 9.49637 12.5 8.83333C12.5 8.17029 12.2366 7.5344 11.7678 7.06556C11.2989 6.59672 10.6631 6.33333 10 6.33333Z" fill="black"/>
</svg>
