<svg width="100" height="53" viewBox="0 0 100 53" fill="none" xmlns="http://www.w3.org/2000/svg">
<g clip-path="url(#clip0_15_177)">
<path d="M0 26.2715C0 40.7807 22.3604 52.543 49.9422 52.543C77.524 52.543 99.8846 40.7807 99.8846 26.2715C99.8846 11.7625 77.524 0 49.9422 0C22.3604 0 0 11.7625 0 26.2715Z" fill="url(#paint0_radial_15_177)"/>
<path d="M49.9422 50.5924C76.4467 50.5924 97.9335 39.7035 97.9335 26.2714C97.9335 12.8395 76.4467 1.95043 49.9422 1.95043C23.4377 1.95043 1.95087 12.8395 1.95087 26.2714C1.95087 39.7035 23.4377 50.5924 49.9422 50.5924Z" fill="#777BB3"/>
<path d="M27.1341 29.2869C29.3135 29.2869 30.9405 28.885 31.9699 28.0927C32.9883 27.3086 33.6917 25.95 34.0604 24.055C34.4042 22.2837 34.2732 21.0469 33.6713 20.3794C33.0559 19.6977 31.7253 19.352 29.7167 19.352H26.2338L24.303 29.2869H27.1341ZM15.7427 41.525C15.581 41.525 15.4275 41.4527 15.3247 41.3277C15.2217 41.2029 15.18 41.0385 15.2109 40.8798L20.3279 14.5519C20.3774 14.2974 20.6005 14.1135 20.8599 14.1135H31.8884C35.3545 14.1135 37.9343 15.0546 39.5559 16.911C41.1861 18.7772 41.6896 21.3857 41.0521 24.6641C40.7927 25.9997 40.3465 27.2401 39.726 28.3507C39.1048 29.4625 38.2839 30.4912 37.2855 31.4089C36.0904 32.5273 34.7378 33.3384 33.2689 33.8156C31.8232 34.2866 29.9667 34.5254 27.7508 34.5254H23.2851L22.0098 41.0864C21.9603 41.3411 21.7374 41.525 21.478 41.525H15.7427Z" fill="black"/>
<path d="M26.6806 19.8938H29.7167C32.141 19.8938 32.9831 20.4257 33.2693 20.7428C33.744 21.2691 33.8336 22.379 33.5285 23.9521C33.1856 25.7133 32.5501 26.962 31.6394 27.6633C30.7069 28.3811 29.191 28.7449 27.1341 28.7449H24.9604L26.6806 19.8938ZM31.8885 13.5715H20.8598C20.341 13.5715 19.895 13.9393 19.796 14.4485L14.6789 40.7764C14.6172 41.0941 14.7006 41.4227 14.9064 41.6725C15.1123 41.9223 15.419 42.0668 15.7427 42.0668H21.4779C21.9969 42.0668 22.4428 41.699 22.5418 41.1898L23.7319 35.0672H27.7508C30.0236 35.0672 31.9369 34.8193 33.4371 34.3307C34.9799 33.8295 36.3993 32.9796 37.6556 31.8047C38.6947 30.8488 39.5505 29.7758 40.199 28.6152C40.8477 27.4543 41.3137 26.1597 41.5841 24.7673C42.2552 21.3165 41.71 18.5531 39.964 16.5545C38.2349 14.5751 35.5178 13.5715 31.8885 13.5715ZM23.6455 29.8287H27.1341C29.4465 29.8287 31.1688 29.3932 32.3005 28.522C33.4324 27.6506 34.1957 26.1963 34.5924 24.1584C34.9719 22.2017 34.7991 20.821 34.0738 20.0166C33.3477 19.2122 31.8955 18.81 29.7167 18.81H25.7871L23.6455 29.8287ZM31.8885 14.6553C35.2062 14.6553 37.6266 15.526 39.1479 17.2675C40.669 19.009 41.1271 21.4398 40.5202 24.5607C40.2703 25.8463 39.8478 27.0217 39.253 28.0865C38.6574 29.1521 37.8798 30.1264 36.9188 31.0099C35.7736 32.0816 34.5014 32.8454 33.1014 33.3002C31.7015 33.7563 29.9185 33.9834 27.7508 33.9834H22.8383L21.4779 40.983H15.7427L20.8598 14.6553H31.8885Z" fill="white"/>
<path d="M54.2021 34.5254C54.0403 34.5254 53.8869 34.4531 53.7841 34.3281C53.681 34.2033 53.6393 34.0391 53.6702 33.8801L55.9337 22.2311C56.149 21.1233 56.0959 20.3281 55.7843 19.9921C55.5936 19.7867 55.0206 19.4423 53.3264 19.4423H49.2256L46.3797 34.0868C46.3302 34.3415 46.1071 34.5254 45.8477 34.5254H40.1577C39.9958 34.5254 39.8425 34.4531 39.7395 34.3281C39.6366 34.2033 39.5948 34.0389 39.6257 33.8801L44.7428 7.55227C44.7923 7.29776 45.0154 7.11387 45.2747 7.11387H50.9648C51.1266 7.11387 51.28 7.18613 51.3829 7.31094C51.4859 7.43594 51.5276 7.60014 51.4967 7.7591L50.2619 14.1135H54.6734C58.0341 14.1135 60.313 14.706 61.6404 15.9249C62.9933 17.1684 63.4155 19.1567 62.8952 21.8351L60.5144 34.0868C60.465 34.3415 60.2421 34.5254 59.9825 34.5254H54.2021Z" fill="black"/>
<path d="M50.9648 6.57187H45.2748C44.7558 6.57187 44.3098 6.93965 44.2108 7.44886L39.0938 33.7767C39.032 34.0945 39.1154 34.423 39.3214 34.6728C39.5273 34.9227 39.834 35.0672 40.1577 35.0672H45.8477C46.3665 35.0672 46.8127 34.6994 46.9117 34.1902L49.6723 19.9841H53.3264C55.0177 19.9841 55.3727 20.3454 55.3869 20.3609C55.4895 20.4713 55.6245 20.9825 55.4017 22.1277L53.1382 33.7767C53.0764 34.0945 53.1599 34.423 53.3658 34.6728C53.5717 34.9227 53.8784 35.0672 54.2021 35.0672H59.9825C60.5013 35.0672 60.9475 34.6994 61.0464 34.1902L63.427 21.9386C63.9857 19.0627 63.5078 16.9053 62.0071 15.526C60.575 14.2108 58.1761 13.5715 54.6734 13.5715H50.9191L52.0287 7.86252C52.0903 7.54478 52.0071 7.21602 51.8011 6.96638C51.5952 6.71656 51.2885 6.57187 50.9648 6.57187ZM50.9648 7.65569L49.6044 14.6553H54.6734C57.8629 14.6553 60.0629 15.212 61.2737 16.324C62.4845 17.4368 62.8472 19.2397 62.3633 21.7319L59.9825 33.9834H54.2021L56.4657 22.3345C56.7233 21.0094 56.6286 20.1055 56.1814 19.6235C55.7339 19.1416 54.7822 18.9003 53.3264 18.9003H48.7787L45.8477 33.9834H40.1577L45.2748 7.65569H50.9648Z" fill="white"/>
<path d="M71.8984 29.2869C74.0778 29.2869 75.7048 28.885 76.7342 28.0927C77.7527 27.3088 78.4561 25.9502 78.8249 24.055C79.1687 22.2837 79.0377 21.0469 78.4357 20.3794C77.8202 19.6977 76.4897 19.352 74.481 19.352H70.9982L69.0673 29.2869H71.8984ZM60.5072 41.525C60.3455 41.525 60.192 41.4527 60.0892 41.3277C59.9862 41.2029 59.9443 41.0385 59.9752 40.8798L65.0923 14.5519C65.1419 14.2974 65.3648 14.1135 65.6244 14.1135H76.6528C80.119 14.1135 82.6987 15.0546 84.3204 16.911C85.9506 18.777 86.4539 21.3855 85.8166 24.6641C85.5569 25.9997 85.1109 27.2401 84.4904 28.3507C83.8692 29.4625 83.0482 30.4912 82.0498 31.4089C80.8547 32.5273 79.5021 33.3384 78.0332 33.8156C76.5876 34.2866 74.731 34.5254 72.5151 34.5254H68.0493L66.7745 41.0864C66.7249 41.3411 66.5019 41.525 66.2424 41.525H60.5072Z" fill="black"/>
<path d="M71.4449 19.8938H74.4811C76.9054 19.8938 77.7475 20.4257 78.0336 20.7428C78.5085 21.2691 78.5981 22.379 78.2928 23.9519C77.95 25.7133 77.3143 26.962 76.4037 27.6633C75.4713 28.3811 73.9554 28.7449 71.8985 28.7449H69.7249L71.4449 19.8938ZM76.6528 13.5715H65.6243C65.1055 13.5715 64.6595 13.9393 64.5605 14.4485L59.4435 40.7764C59.3817 41.0941 59.4652 41.4227 59.6709 41.6725C59.8768 41.9223 60.1835 42.0668 60.5072 42.0668H66.2424C66.7612 42.0668 67.2074 41.699 67.3064 41.1898L68.4962 35.0672H72.5152C74.7879 35.0672 76.7012 34.8193 78.2014 34.3307C79.7442 33.8295 81.164 32.9794 82.4204 31.8044C83.4594 30.8486 84.3149 29.7758 84.9633 28.6152C85.612 27.4543 86.0781 26.1597 86.3485 24.7673C87.0195 21.3163 86.4744 18.5529 84.7283 16.5544C82.9993 14.5751 80.2824 13.5715 76.6528 13.5715ZM68.4101 29.8287H71.8985C74.2108 29.8287 75.9332 29.3932 77.0649 28.522C78.1969 27.6506 78.9601 26.1963 79.3568 24.1584C79.7365 22.2017 79.5636 20.821 78.8382 20.0166C78.112 19.2122 76.6599 18.81 74.4811 18.81H70.5515L68.4101 29.8287ZM76.6528 14.6553C79.9706 14.6553 82.3909 15.526 83.9122 17.2675C85.4335 19.009 85.8915 21.4398 85.2845 24.5607C85.0347 25.8463 84.6122 27.0217 84.0174 28.0865C83.4218 29.1521 82.6442 30.1264 81.6832 31.0099C80.538 32.0816 79.2657 32.8454 77.8658 33.3002C76.4659 33.7563 74.6828 33.9834 72.5152 33.9834H67.6026L66.2424 40.983H60.5072L65.6243 14.6553H76.6528Z" fill="white"/>
</g>
<defs>
<radialGradient id="paint0_radial_15_177" cx="0" cy="0" r="1" gradientUnits="userSpaceOnUse" gradientTransform="translate(29.9856 43.3067) scale(65.5813 65.5813)">
<stop stop-color="#AEB2D5"/>
<stop offset="0.3" stop-color="#AEB2D5"/>
<stop offset="0.75" stop-color="#484C89"/>
<stop offset="1" stop-color="#484C89"/>
</radialGradient>
<clipPath id="clip0_15_177">
<rect width="100" height="52.6012" fill="white"/>
</clipPath>
</defs>
</svg>
