<svg width="100" height="100" viewBox="0 0 100 100" fill="none" xmlns="http://www.w3.org/2000/svg">
<g clip-path="url(#clip0_29_2)">
<path d="M49.3461 0.121534C45.2272 0.14018 41.2944 0.487357 37.8342 1.09292C27.6395 2.8732 25.7884 6.59802 25.7884 13.4687V22.5423H49.8797V25.5666H16.7466C9.74529 25.5666 3.61375 29.7256 1.6963 37.6371C-0.515873 46.7054 -0.613812 52.3641 1.6963 61.8329C3.40889 68.8811 7.49898 73.9032 14.5003 73.9032H22.7838V63.0261C22.7838 55.1681 29.6639 48.2371 37.8342 48.2371H61.8975C68.5961 48.2371 73.9432 42.787 73.9432 36.1391V13.4679C73.9432 7.01624 68.4352 2.16909 61.8975 1.09203C57.7581 0.411885 53.4649 0.102 49.3461 0.121534ZM36.3175 7.41846C38.8064 7.41846 40.8379 9.45979 40.8379 11.9691C40.8379 14.4694 38.8055 16.4921 36.3175 16.4921C33.8204 16.4921 31.797 14.4703 31.797 11.9691C31.797 9.45979 33.8204 7.41846 36.3175 7.41846Z" fill="url(#paint0_linear_29_2)"/>
<path d="M76.9477 25.5658V36.1373C76.9477 44.3337 69.9158 51.232 61.8974 51.232H37.8341C31.2424 51.232 25.7883 56.8064 25.7883 63.3298V85.9993C25.7883 92.4519 31.4653 96.2469 37.8341 98.0973C45.4598 100.313 52.773 100.714 61.8974 98.0973C67.9626 96.3622 73.9431 92.8691 73.9431 85.9993V76.9266H49.8796V73.9024H85.9887C92.9909 73.9024 95.5994 69.0755 98.0344 61.832C100.55 54.3752 100.443 47.2025 98.0344 37.6361C96.3039 30.7486 92.9991 25.5658 85.9887 25.5658H76.9477ZM63.4132 82.975C65.9103 82.975 67.9337 84.997 67.9337 87.4981C67.9337 90.0074 65.9103 92.0487 63.4132 92.0487C60.9243 92.0487 58.8928 90.0074 58.8928 87.4981C58.8928 84.9978 60.9252 82.975 63.4132 82.975Z" fill="url(#paint1_linear_29_2)"/>
</g>
<defs>
<linearGradient id="paint0_linear_29_2" x1="-2.37582" y1="2.95487" x2="52.6226" y2="50.3748" gradientUnits="userSpaceOnUse">
<stop stop-color="#5A9FD4"/>
<stop offset="1" stop-color="#306998"/>
</linearGradient>
<linearGradient id="paint1_linear_29_2" x1="74.024" y1="78.8895" x2="54.4046" y2="51.0714" gradientUnits="userSpaceOnUse">
<stop stop-color="#FFD43B"/>
<stop offset="1" stop-color="#FFE873"/>
</linearGradient>
<clipPath id="clip0_29_2">
<rect width="100" height="100" fill="white"/>
</clipPath>
</defs>
</svg>
