<svg width="100" height="88" viewBox="0 0 100 88" fill="none" xmlns="http://www.w3.org/2000/svg">
<g clip-path="url(#clip0_15_109)">
<path d="M81.6797 28.6094C80.625 28.2578 79.5703 27.9258 78.5156 27.6133C78.6914 26.8906 78.8477 26.168 79.0039 25.4453C81.4063 13.8047 79.8242 4.44922 74.4922 1.36328C69.3555 -1.58594 60.9766 1.48047 52.5 8.86328C51.6602 9.58594 50.8398 10.3477 50.0586 11.1094C49.5312 10.6016 48.9844 10.0937 48.4375 9.60547C39.5508 1.71484 30.6445 -1.60547 25.3125 1.5C20.1953 4.46875 18.6719 13.2773 20.8203 24.293C21.0352 25.3867 21.2695 26.4609 21.543 27.5547C20.293 27.9062 19.0625 28.2969 17.9102 28.707C7.48047 32.3203 0 38.0234 0 43.9219C0 50.0156 7.96875 56.1289 18.8086 59.8398C19.6875 60.1328 20.5664 60.4258 21.4648 60.6797C21.1719 61.8516 20.918 63.0039 20.6836 64.1953C18.6328 75.0351 20.2344 83.6289 25.3516 86.5781C30.625 89.625 39.4922 86.5 48.125 78.9414C48.8086 78.3359 49.4922 77.7109 50.1758 77.0469C51.0352 77.8867 51.9336 78.6875 52.832 79.4687C61.1914 86.6562 69.4531 89.5664 74.5508 86.6172C79.8242 83.5703 81.543 74.332 79.3164 63.082C79.1406 62.2227 78.9453 61.3437 78.7305 60.4453C79.3555 60.2695 79.9609 60.0742 80.5664 59.8789C91.8359 56.1484 100 50.1133 100 43.9219C100 38.0039 92.3047 32.2617 81.6797 28.6094V28.6094ZM55.2539 12.0273C62.5195 5.69922 69.2969 3.21875 72.3828 4.99609C75.6836 6.89062 76.9531 14.5469 74.8828 24.6055C74.7461 25.2695 74.6094 25.9141 74.4336 26.5586C70.0977 25.582 65.7031 24.8789 61.2891 24.4883C58.75 20.8555 55.9766 17.3789 52.9688 14.1172C53.7305 13.3945 54.4727 12.7109 55.2539 12.0273V12.0273ZM32.6562 54.0586C33.6523 55.7578 34.668 57.457 35.7422 59.1172C32.6953 58.7851 29.668 58.2969 26.6797 57.6523C27.5391 54.8398 28.6133 51.9297 29.8633 48.9609C30.7617 50.6797 31.6797 52.3789 32.6562 54.0586V54.0586ZM26.7383 30.5625C29.5508 29.9375 32.5391 29.4297 35.6445 29.0391C34.6094 30.6602 33.5938 32.3203 32.6367 34C31.6797 35.6602 30.7422 37.3594 29.8633 39.0781C28.6328 36.168 27.5977 33.3164 26.7383 30.5625ZM32.0898 44.0195C33.3789 41.3242 34.7852 38.6875 36.2695 36.0898C37.7539 33.4922 39.3555 30.9727 41.0352 28.4922C43.9648 28.2773 46.9531 28.1602 50 28.1602C53.0469 28.1602 56.0547 28.2773 58.9648 28.4922C60.625 30.9531 62.207 33.4727 63.7109 36.0508C65.2148 38.6289 66.6211 41.2656 67.9492 43.9414C66.6406 46.6367 65.2344 49.293 63.7305 51.9101C62.2461 54.5078 60.6641 57.0273 59.0039 59.5273C56.0938 59.7422 53.0664 59.8398 50 59.8398C46.9336 59.8398 43.9648 59.7422 41.0937 59.5664C39.3945 57.0859 37.793 54.5469 36.2891 51.9492C34.7852 49.3516 33.3984 46.7148 32.0898 44.0195ZM67.3633 54.0195C68.3594 52.3008 69.2969 50.5625 70.2148 48.8047C71.4648 51.6367 72.5586 54.5078 73.5156 57.457C70.4883 58.1406 67.4219 58.668 64.3359 59.0195C65.3906 57.3789 66.3867 55.6992 67.3633 54.0195ZM70.1758 39.0781C69.2578 37.3594 68.3203 35.6406 67.3437 33.9609C66.3867 32.3008 65.3906 30.6602 64.3555 29.0391C67.5 29.4297 70.5078 29.957 73.3203 30.6016C72.4219 33.4922 71.3672 36.3047 70.1758 39.0781V39.0781ZM50.0391 17.1055C52.0898 19.332 54.0234 21.6758 55.8203 24.0977C51.9531 23.9219 48.0664 23.9219 44.1992 24.0977C46.1133 21.5781 48.0859 19.2344 50.0391 17.1055ZM27.3828 5.13281C30.6641 3.21875 37.9492 5.95312 45.625 12.75C46.1133 13.1797 46.6016 13.6484 47.1094 14.1172C44.082 17.3789 41.2891 20.8555 38.7305 24.4883C34.3164 24.8789 29.9414 25.5625 25.6055 26.5195C25.3516 25.5234 25.1367 24.5078 24.9219 23.4922C23.0859 14.0391 24.2969 6.91015 27.3828 5.13281V5.13281ZM22.5977 56.6172C21.7773 56.3828 20.9766 56.1289 20.1758 55.8555C16.0156 54.5469 11.2891 52.4766 7.87109 49.7617C5.89844 48.3945 4.57031 46.2852 4.19922 43.9219C4.19922 40.3477 10.3711 35.7773 19.2773 32.6719C20.3906 32.2812 21.5234 31.9297 22.6562 31.5977C23.9844 35.8359 25.5859 39.9961 27.4414 44.0195C25.5664 48.1016 23.9453 52.3203 22.5977 56.6172V56.6172ZM45.3711 75.7578C42.1484 78.707 38.418 81.0508 34.3555 82.6523C32.1875 83.6875 29.6875 83.7851 27.4609 82.9062C24.3555 81.1094 23.0664 74.2148 24.8242 64.9375C25.0391 63.8437 25.2734 62.75 25.5469 61.6758C29.9219 62.6133 34.3359 63.2578 38.8086 63.5898C41.3867 67.2422 44.2187 70.7383 47.2461 74.0195C46.6211 74.625 45.9961 75.2109 45.3711 75.7578ZM50.1562 71.0117C48.1641 68.8633 46.1719 66.4805 44.2383 63.9219C46.1133 64 48.0469 64.0391 50 64.0391C52.0117 64.0391 53.9844 64 55.9375 63.9023C54.1406 66.3828 52.207 68.7461 50.1562 71.0117V71.0117ZM75.6836 76.8711C75.5078 79.2539 74.3359 81.4805 72.4609 82.9844C69.3555 84.7812 62.7344 82.4375 55.5859 76.3047C54.7656 75.6016 53.9453 74.8398 53.1055 74.0586C56.0937 70.7578 58.8477 67.2617 61.3477 63.5898C65.8203 63.2187 70.2734 62.5351 74.668 61.5391C74.8633 62.3398 75.0391 63.1406 75.1953 63.9219C76.1523 68.1406 76.3086 72.5351 75.6836 76.8711V76.8711ZM79.2383 55.875C78.6914 56.0508 78.1445 56.2266 77.5781 56.3828C76.2109 52.125 74.5313 47.9648 72.5977 43.9219C74.4727 39.9375 76.0547 35.8359 77.3828 31.6367C78.3984 31.9297 79.375 32.2422 80.3125 32.5547C89.4141 35.6797 95.8008 40.3281 95.8008 43.8828C95.8008 47.7109 88.9844 52.6523 79.2383 55.875ZM50 52.9453C54.9414 52.9453 58.9453 48.9414 58.9453 44C58.9453 39.0586 54.9414 35.0547 50 35.0547C45.0586 35.0547 41.0547 39.0586 41.0547 44C41.0547 48.9414 45.0586 52.9453 50 52.9453Z" fill="#61DBFB"/>
</g>
<defs>
<clipPath id="clip0_15_109">
<rect width="100" height="88" fill="white"/>
</clipPath>
</defs>
</svg>
